<svg width="20" height="22" viewBox="0 0 20 22" fill="none" xmlns="http://www.w3.org/2000/svg">
<path d="M8.51626 2.68651C9.161 1.51913 10.839 1.51913 11.4837 2.68651V2.68651C11.9151 3.46755 12.8781 3.78045 13.6862 3.40213V3.40213C14.8939 2.83666 16.2515 3.82297 16.0869 5.14636V5.14636C15.9768 6.03179 16.572 6.85098 17.4481 7.01987V7.01987C18.7576 7.27231 19.2761 8.86819 18.3651 9.84211V9.84211C17.7556 10.4937 17.7556 11.5063 18.3651 12.1579V12.1579C19.2761 13.1318 18.7576 14.7277 17.4481 14.9801V14.9801C16.572 15.149 15.9768 15.9682 16.0869 16.8536V16.8536C16.2515 18.177 14.8939 19.1633 13.6862 18.5979V18.5979C12.8781 18.2195 11.9151 18.5324 11.4837 19.3135V19.3135C10.839 20.4809 9.161 20.4809 8.51626 19.3135V19.3135C8.0849 18.5324 7.12189 18.2195 6.31382 18.5979V18.5979C5.10606 19.1633 3.74852 18.177 3.91308 16.8536V16.8536C4.02319 15.9682 3.42802 15.149 2.5519 14.9801V14.9801C1.24243 14.7277 0.723893 13.1318 1.6349 12.1579V12.1579C2.24442 11.5063 2.24442 10.4937 1.6349 9.84211V9.84211C0.723893 8.86819 1.24243 7.27231 2.5519 7.01987V7.01987C3.42802 6.85098 4.02319 6.03179 3.91308 5.14636V5.14636C3.74852 3.82297 5.10606 2.83666 6.31382 3.40213V3.40213C7.12189 3.78045 8.0849 3.46755 8.51626 2.68651V2.68651Z" stroke="#6BBEA0" stroke-width="2"/>
</svg>
