<svg width="27" height="27" viewBox="0 0 27 27" fill="none" xmlns="http://www.w3.org/2000/svg">
<path d="M10.7509 3.29228C11.7989 0.893703 15.2011 0.893704 16.2491 3.29228L18.0462 7.40575C18.3488 8.09833 18.9017 8.65117 19.5943 8.95376L23.7077 10.7509C26.1063 11.7989 26.1063 15.2011 23.7077 16.2491L19.5943 18.0462C18.9017 18.3488 18.3488 18.9017 18.0462 19.5943L16.2491 23.7077C15.2011 26.1063 11.7989 26.1063 10.7509 23.7077L8.95376 19.5943C8.65117 18.9017 8.09832 18.3488 7.40574 18.0462L3.29228 16.2491C0.893703 15.2011 0.893704 11.7989 3.29228 10.7509L7.40575 8.95376C8.09833 8.65117 8.65117 8.09832 8.95376 7.40574L10.7509 3.29228Z" stroke="#6BBEA0" stroke-width="2"/>
</svg>
