<svg width="98" height="120" viewBox="0 0 98 120" fill="none" xmlns="http://www.w3.org/2000/svg">
<path d="M70.3288 120C65.072 120 60.0022 117.067 57.5602 112.079L50.4923 98.8449L46.4828 106.498C46.3802 106.695 46.2632 106.884 46.1338 107.063C43.5025 110.715 39.1731 112.013 35.9677 112.013C35.9419 112.013 35.9162 112.013 35.8901 112.012C32.3079 111.989 28.7409 110.452 26.1044 107.795C23.3662 105.036 21.8584 101.373 21.8584 97.4811V36.7881C21.8584 31.2524 24.9775 26.3651 29.9981 24.0335C34.9712 21.724 40.6564 22.4581 44.8738 25.9435L75.7523 48.9385C77.8287 50.4847 78.2583 53.4214 76.7123 55.4978C75.1659 57.5741 72.2294 58.0037 70.1531 56.4575L39.1705 33.385C39.0938 33.3278 39.0188 33.2685 38.9457 33.2066C36.8253 31.416 34.584 32.241 33.9469 32.5365C33.3104 32.8321 31.2338 34.0121 31.2338 36.7881V97.4813C31.2338 100.502 33.7203 102.623 35.9523 102.638C35.9593 102.638 35.9668 102.638 35.9738 102.638C36.886 102.638 37.8889 102.26 38.3886 101.747L46.3007 86.6446C47.1065 85.1062 48.6975 84.1394 50.4342 84.1323C50.4405 84.1323 50.4469 84.1323 50.4529 84.1323C52.1827 84.1323 53.7724 85.0848 54.5878 86.6116L65.8733 107.742C65.9052 107.801 65.9357 107.862 65.9647 107.923C67.0897 110.267 69.9252 111.287 72.285 110.194C73.4599 109.651 74.3463 108.681 74.7815 107.462C75.2037 106.281 75.1495 105.011 74.6313 103.874L63.2415 83.6057C62.4259 82.1542 62.4413 80.379 63.2823 78.942C64.123 77.5051 65.6631 76.6219 67.3281 76.6219H83.3989C86.1186 76.483 87.2045 74.3412 87.474 73.6831C87.7506 73.0083 88.5018 70.646 86.5609 68.5875C84.785 66.7038 84.8722 63.7373 86.7556 61.9612C88.6393 60.1851 91.6061 60.2727 93.382 62.1562C97.2281 66.2355 98.2889 72.0139 96.1497 77.2365C94.0225 82.4303 89.2424 85.7859 83.675 85.9938C83.6169 85.9961 83.5585 85.997 83.5001 85.997H75.3394L82.8854 99.4252C82.9315 99.5077 82.9756 99.5914 83.0169 99.6765C84.6882 103.123 84.8989 107.008 83.6103 110.616C82.3219 114.223 79.6978 117.095 76.2211 118.703C74.3172 119.583 72.3096 120 70.3288 120ZM27.1587 18.4085C29.4288 17.1637 30.2597 14.3144 29.0149 12.0444L25.0305 4.77874C23.7857 2.5088 20.9369 1.67793 18.6667 2.92271C16.3965 4.16748 15.5656 7.01681 16.8104 9.28675L20.7948 16.5525C21.6475 18.1073 23.2525 18.9869 24.9091 18.9869C25.6708 18.9869 26.4438 18.8008 27.1587 18.4085ZM17.2461 29.0682C18.2837 26.6963 17.2021 23.9323 14.8304 22.8947L7.33033 19.6134C4.95843 18.5756 2.19466 19.6575 1.15683 22.0291C0.119246 24.401 1.2009 27.1651 3.57256 28.2026L11.0726 31.4839C11.6841 31.7516 12.3216 31.8781 12.9491 31.8781C14.7549 31.8779 16.476 30.8284 17.2461 29.0682ZM46.4615 13.9059L49.0396 6.17141C49.8583 3.71537 48.5311 1.06058 46.075 0.242133C43.6199 -0.577016 40.9642 0.750732 40.1457 3.20677L37.5676 10.9412C36.7489 13.3973 38.0762 16.0521 40.5322 16.8705C41.0239 17.0346 41.5236 17.1124 42.0151 17.1124C43.9776 17.1124 45.8069 15.8699 46.4615 13.9059ZM58.8671 25.7998L65.1953 21.1123C67.2756 19.5712 67.7127 16.6357 66.1719 14.5553C64.6309 12.475 61.6951 12.0379 59.615 13.5787L53.2868 18.2662C51.2065 19.8072 50.7694 22.7428 52.3102 24.8232C53.2298 26.0647 54.646 26.7209 56.0806 26.7209C57.0502 26.7209 58.0283 26.4211 58.8671 25.7998ZM7.66127 52.1668L14.6926 49.3543C17.0964 48.3928 18.2654 45.6647 17.304 43.2611C16.3424 40.8571 13.614 39.6881 11.2109 40.6497L4.1796 43.4622C1.77582 44.4237 0.606751 47.1518 1.56817 49.5554C2.3013 51.3882 4.06147 52.5033 5.92172 52.5033C6.50134 52.5033 7.09033 52.3951 7.66127 52.1668Z" fill="#6BBEA0"/>
</svg>
