<svg width="121" height="60" viewBox="0 0 121 60" fill="none" xmlns="http://www.w3.org/2000/svg">
<path d="M54.1215 0.933001V0.945591C52.9445 0.970766 51.9501 1.15329 51.1886 1.49315C50.3515 1.87078 49.6969 2.38059 49.2123 3.03515C48.7277 3.68971 48.3878 4.44497 48.2053 5.28835C48.0227 6.13802 47.9409 7.04433 47.9409 8.01988V10.5941V17.3726V17.9642C47.9409 18.9334 48.029 19.846 48.2053 20.6957C48.3878 21.5454 48.7277 22.2943 49.2123 22.9363C49.6969 23.5909 50.3515 24.1133 51.1886 24.4909C51.9501 24.8308 52.9445 25.0133 54.1215 25.0385L64.0532 25.0511C65.205 25.0511 66.1428 24.1196 66.1428 22.9615C66.1428 21.8097 65.2113 20.8656 64.0532 20.8656H55.3677C54.3229 20.8531 53.6432 20.5635 53.3285 20.0034C53.0138 19.4181 52.8564 18.8138 52.8564 17.9138V17.3663V10.5878V8.19611C52.8564 7.30867 53.0138 6.5723 53.3285 5.98697C53.6432 5.42681 54.3229 5.1373 55.3677 5.11212H64.0532C65.205 5.11212 66.1428 4.18063 66.1428 3.02256V3.00998C66.1428 1.8582 65.2113 0.92041 64.0532 0.92041H54.1215V0.933001Z" fill="#313130"/>
<path d="M56.7902 15.2264H64.0533C65.2051 15.2264 66.1429 14.2949 66.1429 13.1431V13.0676C66.1429 11.9158 65.2114 10.978 64.0533 10.978H56.7902C55.6385 10.978 54.7007 11.9095 54.7007 13.0676V13.1431C54.7007 14.2886 55.6385 15.2264 56.7902 15.2264Z" fill="#313130"/>
<path d="M97.7062 0.372559C96.9887 0.372559 96.3341 0.806835 96.0698 1.47398L90.6571 14.9869C90.4053 15.5785 89.8452 15.5785 89.5871 14.9743L84.1744 1.47398C83.9101 0.806835 83.2555 0.372559 82.538 0.372559H81.0715C79.8002 0.372559 78.9505 1.6691 79.4603 2.83346L88.8633 24.3018C89.3731 25.2962 90.7893 25.2962 91.2991 24.3018L100.715 2.83346C101.224 1.6691 100.362 0.372559 99.1034 0.372559H97.7062Z" fill="#313130"/>
<path d="M81.267 11.3742L79.8132 14.9869C79.5614 15.5785 79.0138 15.5785 78.7558 14.9743L73.3305 1.47398C73.0661 0.806835 72.4179 0.372559 71.7067 0.372559H70.2276C68.9688 0.372559 68.1192 1.6691 68.6164 2.83346L78.0194 24.3018C78.5292 25.2962 79.9579 25.2962 80.4677 24.3018L83.6965 16.9254L81.267 11.3742Z" fill="#313130"/>
<path d="M44.6491 18.6187V2.76449C44.6491 1.49313 43.6169 0.460938 42.3455 0.460938C41.0742 0.460938 40.042 1.49313 40.042 2.76449V13.1871L44.6491 18.6187Z" fill="#313130"/>
<path d="M39.0726 14.7605L26.529 0.435723C25.4338 -0.546119 23.6904 0.240616 23.6904 1.70708V22.2439C23.6904 23.5153 24.7352 24.5475 26.0066 24.5475C27.2779 24.5475 28.3101 23.5153 28.3101 22.2439V9.36042L41.823 24.623C42.9245 25.5923 44.649 24.8055 44.649 23.3391V21.3376L39.0726 14.7605Z" fill="#313130"/>
<path d="M103.812 4.38209C104.454 5.30729 105.391 6.11919 106.575 6.81152C106.65 6.70452 106.694 6.59123 106.782 6.48423C107.072 6.15695 107.45 5.89262 107.896 5.67233C108.343 5.46463 108.828 5.30729 109.325 5.21288C109.772 5.13106 110.238 5.06812 110.596 5.04295V5.05554H117.52C118.659 5.05554 119.584 4.13034 119.584 2.99115C119.584 1.86455 118.665 0.939348 117.52 0.939348H111.188C111.094 0.926761 110.993 0.926758 110.873 0.926758C110.81 0.926758 110.741 0.926761 110.666 0.939348H110.59C109.665 0.951936 108.708 1.04634 107.726 1.24145C106.631 1.44915 105.649 1.82049 104.756 2.34288C104.208 2.65757 103.736 3.06038 103.314 3.51983C103.459 3.79676 103.604 4.08628 103.812 4.38209Z" fill="#313130"/>
<path d="M105.253 13.332C105.907 13.6719 106.574 13.9362 107.254 14.1313C107.934 14.339 108.601 14.4964 109.23 14.616C109.872 14.723 110.432 14.8363 110.917 14.9181C111.647 15.0377 112.339 15.1698 113.007 15.3272C113.686 15.4719 114.265 15.6545 114.75 15.8622C114.788 15.8873 114.826 15.9125 114.857 15.9251C117.5 16.844 119.477 18.1846 120.754 19.9028C120.912 19.2986 121 18.6314 121 17.9139C121 16.8692 120.842 15.988 120.528 15.2453C120.2 14.5153 119.785 13.8985 119.269 13.4013C118.759 12.904 118.168 12.4949 117.507 12.1677C116.852 11.853 116.185 11.5949 115.518 11.4061C114.838 11.2236 114.196 11.0662 113.579 10.9718C112.95 10.8648 112.402 10.7515 111.943 10.6445C111.748 10.5942 111.528 10.5501 111.339 10.5124C111.314 10.4998 111.301 10.4998 111.276 10.4872C110.86 10.4054 110.464 10.3047 110.036 10.1977C109.369 10.0529 108.765 9.8704 108.217 9.6627C107.927 9.5557 107.669 9.42354 107.43 9.27248C105.127 8.29064 103.39 6.9941 102.288 5.36399C102.25 5.31364 102.238 5.26959 102.2 5.21924C101.885 5.9808 101.728 6.85564 101.728 7.87525C101.728 8.80674 101.885 9.61864 102.213 10.311C102.527 11.0033 102.949 11.5949 103.471 12.0921C103.994 12.5893 104.585 13.0047 105.253 13.332Z" fill="#313130"/>
<path d="M119.326 21.0227C118.621 20.0534 117.576 19.2289 116.267 18.5366C116.216 18.6814 116.172 18.8261 116.084 18.9835C115.889 19.3485 115.6 19.6884 115.197 19.9653C114.794 20.2548 114.322 20.4877 113.743 20.6702C113.17 20.8528 112.541 20.922 111.792 20.922H111.257H104.415C103.276 20.922 102.351 21.8409 102.351 22.9864C102.351 24.1256 103.27 25.0508 104.415 25.0508H111.207H111.836C113.195 25.0508 114.429 24.906 115.562 24.6165C116.676 24.3144 117.651 23.8738 118.463 23.2948C119.011 22.892 119.47 22.4199 119.848 21.8849C119.697 21.6017 119.54 21.3122 119.326 21.0227Z" fill="#313130"/>
<path d="M30.2173 34.3219C31.2873 33.7617 32.609 34.1645 33.1754 35.2345C35.6741 39.9612 20.6003 42.5542 17.7869 31.8358C16.931 28.5819 17.6988 23.3643 20.8583 24.5034C21.9912 24.9188 22.5766 26.1713 22.1675 27.3105C20.3989 32.182 25.5787 36.7702 30.2173 34.3219Z" fill="#6BBEA0"/>
<path d="M34.938 46.9534C21.639 52.7123 6.85478 41.7043 8.93175 27.1026C9.54855 22.7913 11.6633 18.7003 15.0997 15.6792C17.2711 13.7785 20.1474 17.0639 17.976 18.9583C15.3578 21.2682 13.7339 24.4088 13.2619 27.7257C11.6759 38.8532 22.9796 47.3688 33.1946 42.9505C35.8317 41.7924 37.5814 45.7953 34.938 46.9534Z" fill="#6BBEA0"/>
<path d="M17.4031 3.35609C20.0843 2.26096 21.7459 6.30791 19.0647 7.41563C-0.465156 15.4214 -0.383329 43.0452 18.9136 51.1202C24.4963 53.4489 30.9727 53.6629 37.0148 51.1831C39.696 50.088 41.3638 54.1412 38.6763 55.2426C24.3578 61.1148 7.97492 54.2671 2.10275 39.9423C-3.76942 25.6049 3.0783 9.22826 17.4031 3.35609Z" fill="#6BBEA0"/>
<path d="M113.781 42.6109C112.182 40.8172 107.204 40.8864 107.204 40.8864H105.681C104.522 40.8864 103.572 41.8368 103.585 43.0074C103.585 44.1529 104.535 45.0907 105.681 45.0907H107.927C109.016 45.0907 111.421 45.0781 111.421 48.0362C111.421 51.2902 108.853 51.3909 108.437 51.3909H102.187C101.936 51.3909 101.728 51.1769 101.728 50.9314V45.0907H101.741V40.8864H101.728V35.4611C101.728 35.1968 101.942 34.9891 102.187 34.9891H105.857C106.197 34.9891 106.518 35.0772 106.82 35.2282C107.128 35.3919 107.392 35.5996 107.619 35.8513C107.846 36.1031 108.028 36.3863 108.167 36.7388C108.292 37.0786 108.368 37.4248 108.368 37.7835C108.368 38.1423 108.305 38.5199 108.179 38.8913C108.154 38.9542 108.129 39.0046 108.104 39.0549C110.974 39.2437 112.207 39.6906 113.082 40.0934C113.258 39.5584 113.296 38.8724 113.296 37.6828C113.296 36.2856 112.931 30.7974 105.857 30.7974H99.393C98.0587 30.7974 96.9824 31.8673 96.9824 33.2016V53.1783C96.9824 54.5126 98.0524 55.6015 99.393 55.6015H108.437C109.495 55.6015 110.495 55.4756 111.433 55.2238C112.371 54.9721 113.195 54.563 113.888 53.9902C114.586 53.4175 115.146 52.6559 115.549 51.7307C115.958 50.7929 116.16 49.6475 116.16 48.3006C116.166 46.5194 115.53 44.197 113.781 42.6109Z" fill="#313130"/>
<path d="M56.8654 51.4598H49.168C48.0981 51.4347 47.3869 51.1388 47.0722 50.5598C46.7323 49.9745 46.575 49.2129 46.575 48.3003L46.5498 33.3398C46.5498 31.9426 45.4169 30.8223 44.0322 30.8223C42.6476 30.8223 41.521 31.9426 41.521 33.3398V48.3507C41.521 49.3388 41.6091 50.2703 41.7979 51.1325C41.9867 52.0074 42.3203 52.7815 42.8238 53.4424C43.321 54.1158 44.0071 54.6382 44.8693 55.0284C45.656 55.3809 46.6631 55.5634 47.8904 55.5886V55.6012H56.8717C58.0172 55.6012 58.9424 54.676 58.9424 53.5305C58.9361 52.385 58.0109 51.4598 56.8654 51.4598Z" fill="#313130"/>
<path d="M86.3211 44.5244L66.4199 48.735C66.4199 48.735 69.7116 35.6815 73.6138 37.2738C79.3034 39.59 76.7544 35.4486 81.7392 39.0613C84.3196 40.918 86.3211 44.5244 86.3211 44.5244Z" fill="#6BBEA0"/>
<path d="M94.0181 46.2426L73.7142 22.6343C73.5065 22.4014 73.2673 22.2189 73.0218 22.0679C74.5135 28.6638 77.6038 34.8003 82.0095 39.9298L87.1201 45.8712L83.6459 45.4873L83.5892 45.481L83.5263 45.4747C82.7773 45.4118 82.085 45.3803 81.4178 45.3803C81.015 45.3803 80.6185 45.3929 80.2346 45.4181C79.2464 45.481 78.2835 45.6006 77.3646 45.7894L77.3394 45.7957H77.3268L77.2954 45.802H77.2891C75.8729 46.0978 74.4505 46.5573 73.0659 47.1678C72.0966 47.5895 71.1211 48.1181 70.0763 48.779L70.0259 48.8105L69.9756 48.8419L67.1685 50.7112L69.1637 42.29C70.6239 36.1472 70.6553 29.7464 69.2581 23.591L68.9308 22.1875C68.8049 22.6029 68.5217 23.4336 68.3958 23.9246L61.2083 54.2232C60.711 56.1617 62.1146 57.8862 63.8705 58.0813C63.9775 58.0939 64.0908 58.1002 64.2041 58.1002C64.6132 58.1002 65.0412 58.0184 65.4629 57.8296L72.7323 52.9833C73.4813 52.5113 74.2554 52.077 75.061 51.7245C76.1058 51.2651 77.1946 50.9063 78.3087 50.6735C78.3275 50.6672 78.3527 50.6672 78.3716 50.6609C79.0828 50.5161 79.8066 50.4217 80.5367 50.3839C80.8262 50.365 81.122 50.3588 81.4178 50.3588C81.978 50.3588 82.5381 50.3902 83.0983 50.4343L91.8971 51.4035C94.4839 51.2399 95.7427 48.1748 94.0181 46.2426Z" fill="#313130"/>
<path d="M73.4815 32.7294C73.406 33.3902 72.808 33.8685 72.1472 33.793C71.4863 33.7175 71.008 33.1196 71.0835 32.4587C71.1591 31.7979 71.757 31.3195 72.4178 31.3951C73.0787 31.4706 73.557 32.0685 73.4815 32.7294Z" fill="#6BBEA0"/>
<path d="M73.0723 27.8957C73.0219 28.3363 72.6254 28.651 72.1912 28.6006C71.7506 28.5503 71.4359 28.1538 71.4862 27.7195C71.5366 27.2789 71.9331 26.9642 72.3674 27.0146C72.808 27.0649 73.1226 27.4551 73.0723 27.8957Z" fill="#6BBEA0"/>
<path d="M72.7829 25.5292C72.7577 25.7244 72.5815 25.8691 72.3864 25.8439C72.1913 25.8188 72.0465 25.6425 72.0717 25.4474C72.0969 25.2523 72.2731 25.1076 72.4682 25.1327C72.6633 25.1579 72.8018 25.3341 72.7829 25.5292Z" fill="#6BBEA0"/>
<path d="M70.9196 23.8427C70.8944 24.0378 70.7182 24.1826 70.5231 24.1574C70.328 24.1322 70.1832 23.956 70.2084 23.7609C70.2336 23.5658 70.4098 23.421 70.6049 23.4462C70.8 23.4714 70.9448 23.6476 70.9196 23.8427Z" fill="#6BBEA0"/>
<path d="M76.9368 35.5114C76.8487 36.2792 76.1564 36.8331 75.3885 36.7513C74.6207 36.6632 74.0668 35.9708 74.1486 35.203C74.2368 34.4351 74.9291 33.8813 75.6969 33.9631C76.4648 34.0449 77.0186 34.7372 76.9368 35.5114Z" fill="#6BBEA0"/>
<path d="M90.0026 2.3174C89.8956 3.28036 89.027 3.97269 88.0641 3.86569C87.1011 3.75869 86.4088 2.89014 86.5158 1.92718C86.6228 0.964221 87.4913 0.271899 88.4543 0.385188C89.4172 0.492184 90.1096 1.35444 90.0026 2.3174Z" fill="#6BBEA0"/>
<path d="M29.7517 29.6517C29.5881 30.8035 28.5181 31.6028 27.3663 31.4392C26.2145 31.2756 25.4152 30.2056 25.5789 29.0538C25.7425 27.902 26.8125 27.1027 27.9642 27.2664C29.116 27.43 29.9153 28.5 29.7517 29.6517Z" fill="#6BBEA0"/>
<path d="M85.5102 44.1373L84.1528 45.4946L92.0567 53.3985L93.4141 52.0411L85.5102 44.1373Z" fill="#F2F5F6"/>
<path d="M67.8558 47.9493L65.1753 58.8008L67.0389 59.2611L69.7193 48.4096L67.8558 47.9493Z" fill="#F2F5F6"/>
<path d="M71.8762 21.3817C71.851 21.602 71.656 21.7593 71.4357 21.7342C71.2154 21.709 71.058 21.5139 71.0832 21.2936C71.1084 21.0733 71.3035 20.9159 71.5238 20.9411C71.7441 20.9663 71.9014 21.1614 71.8762 21.3817Z" fill="#6BBEA0"/>
<path d="M85.163 46.5007C76.2824 44.1279 69.1577 50.3462 69.1577 50.3462L69.3843 48.3699C69.3843 48.3699 75.2816 42.4852 83.8665 44.9335C84.0993 45.0027 85.5784 46.614 85.163 46.5007Z" fill="#F2F5F6"/>
</svg>
