<svg width="356" height="174" viewBox="0 0 356 174" fill="none" xmlns="http://www.w3.org/2000/svg">
<path d="M158.909 2.73716V2.77413C155.454 2.84805 152.534 3.38395 150.298 4.38186C147.84 5.49064 145.918 6.9875 144.495 8.90939C143.072 10.8313 142.074 13.0489 141.538 15.5251C141.002 18.0199 140.762 20.681 140.762 23.5453V31.1036V51.0063V52.7434C140.762 55.5892 141.021 58.2688 141.538 60.7636C142.074 63.2583 143.072 65.4574 144.495 67.3423C145.918 69.2642 147.84 70.7981 150.298 71.9068C152.534 72.9047 155.454 73.4407 158.909 73.5146L188.07 73.5515C191.452 73.5515 194.206 70.8166 194.206 67.4163C194.206 64.0345 191.471 61.2625 188.07 61.2625H162.568C159.501 61.2256 157.505 60.3755 156.581 58.7308C155.657 57.0122 155.195 55.2381 155.195 52.5955V50.9878V31.0851V24.0628C155.195 21.4571 155.657 19.295 156.581 17.5764C157.505 15.9317 159.501 15.0816 162.568 15.0077H188.07C191.452 15.0077 194.206 12.2727 194.206 8.87242V8.83548C194.206 5.45369 191.471 2.7002 188.07 2.7002H158.909V2.73716Z" fill="#313130"/>
<path d="M166.745 44.7063H188.07C191.452 44.7063 194.206 41.9713 194.206 38.5895V38.3677C194.206 34.9859 191.471 32.2324 188.07 32.2324H166.745C163.363 32.2324 160.609 34.9674 160.609 38.3677V38.5895C160.609 41.9528 163.363 44.7063 166.745 44.7063Z" fill="#313130"/>
<path d="M286.881 1.09473C284.774 1.09473 282.853 2.36983 282.076 4.32868L266.184 44.0047C265.445 45.7418 263.8 45.7418 263.042 43.9677L247.15 4.32868C246.374 2.36983 244.452 1.09473 242.345 1.09473H238.039C234.306 1.09473 231.812 4.90156 233.308 8.32031L260.917 71.3547C262.414 74.2745 266.572 74.2745 268.069 71.3547L295.714 8.32031C297.211 4.90156 294.68 1.09473 290.984 1.09473H286.881Z" fill="#313130"/>
<path d="M238.613 33.3973L234.344 44.0047C233.605 45.7418 231.997 45.7418 231.239 43.9677L215.31 4.32868C214.534 2.36983 212.63 1.09473 210.542 1.09473H206.199C202.503 1.09473 200.008 4.90156 201.468 8.32031L229.077 71.3547C230.574 74.2745 234.769 74.2745 236.266 71.3547L245.746 49.6965L238.613 33.3973Z" fill="#313130"/>
<path d="M131.097 54.6676V8.11711C131.097 4.3842 128.066 1.35352 124.333 1.35352C120.601 1.35352 117.57 4.3842 117.57 8.11711V38.7196L131.097 54.6676Z" fill="#313130"/>
<path d="M114.724 43.3393L77.894 1.27935C74.6785 -1.60349 69.5596 0.706485 69.5596 5.01227V65.3117C69.5596 69.0446 72.6272 72.0753 76.3601 72.0753C80.093 72.0753 83.1237 69.0446 83.1237 65.3117V27.4836L122.8 72.297C126.034 75.1429 131.097 72.8329 131.097 68.5272V62.6506L114.724 43.3393Z" fill="#313130"/>
<path d="M304.807 12.8671C306.692 15.5836 309.445 17.9675 312.919 20.0003C313.141 19.6861 313.27 19.3535 313.529 19.0393C314.379 18.0784 315.488 17.3022 316.8 16.6554C318.112 16.0456 319.535 15.5836 320.995 15.3064C322.307 15.0662 323.674 14.8814 324.728 14.8074V14.8444H345.055C348.4 14.8444 351.117 12.1279 351.117 8.78306C351.117 5.47519 348.419 2.75865 345.055 2.75865H326.465C326.188 2.72169 325.892 2.72168 325.541 2.72168C325.356 2.72168 325.153 2.72169 324.931 2.75865H324.709C321.993 2.79561 319.184 3.07279 316.301 3.64567C313.086 4.2555 310.203 5.3458 307.579 6.87962C305.971 7.80361 304.585 8.98633 303.347 10.3354C303.772 11.1485 304.197 11.9985 304.807 12.8671Z" fill="#313130"/>
<path d="M309.039 39.1427C310.961 40.1406 312.92 40.9167 314.916 41.4896C316.911 42.0994 318.87 42.5614 320.718 42.9125C322.603 43.2267 324.248 43.5593 325.671 43.7996C327.814 44.1507 329.847 44.5387 331.806 45.0007C333.802 45.4258 335.502 45.9617 336.925 46.5715C337.036 46.6454 337.147 46.7193 337.239 46.7563C345.001 49.4543 350.803 53.3905 354.555 58.4355C355.017 56.6615 355.275 54.7026 355.275 52.5959C355.275 49.5283 354.813 46.9411 353.889 44.7605C352.928 42.6168 351.709 40.8058 350.193 39.3459C348.697 37.886 346.959 36.6848 345.019 35.7239C343.097 34.7999 341.138 34.0423 339.18 33.4879C337.184 32.9519 335.299 32.4899 333.488 32.2128C331.64 31.8986 330.032 31.566 328.683 31.2518C328.11 31.104 327.463 30.9746 326.909 30.8637C326.835 30.8268 326.798 30.8268 326.724 30.7898C325.505 30.5496 324.34 30.2539 323.084 29.9398C321.125 29.5147 319.351 28.9788 317.743 28.369C316.893 28.0548 316.135 27.6667 315.433 27.2232C308.669 24.3404 303.569 20.5335 300.335 15.7473C300.224 15.5995 300.187 15.4701 300.076 15.3223C299.152 17.5583 298.69 20.127 298.69 23.1207C298.69 25.8557 299.152 28.2396 300.113 30.2724C301.037 32.3051 302.275 34.0422 303.809 35.5021C305.343 36.962 307.08 38.1817 309.039 39.1427Z" fill="#313130"/>
<path d="M350.359 61.7272C348.29 58.8813 345.222 56.4605 341.378 54.4277C341.23 54.8528 341.101 55.2778 340.842 55.7398C340.269 56.8116 339.419 57.8095 338.237 58.6226C337.054 59.4727 335.668 60.1565 333.968 60.6924C332.286 61.2283 330.438 61.4315 328.239 61.4315H326.668H306.581C303.236 61.4315 300.52 64.1296 300.52 67.4929C300.52 70.8377 303.218 73.5543 306.581 73.5543H326.521H328.369C332.36 73.5543 335.982 73.1292 339.309 72.2792C342.579 71.3921 345.444 70.0986 347.828 68.3984C349.435 67.2157 350.784 65.8297 351.893 64.2589C351.45 63.4274 350.988 62.5773 350.359 61.7272Z" fill="#313130"/>
<path d="M88.7228 100.774C91.8644 99.1292 95.7451 100.312 97.4083 103.453C104.745 117.332 60.4857 124.945 52.2253 93.4744C49.7121 83.9203 51.9666 68.6006 61.2434 71.9455C64.5698 73.1651 66.2884 76.8426 65.0872 80.1874C59.8944 94.4908 75.1032 107.962 88.7228 100.774Z" fill="#6BBEA0"/>
<path d="M102.583 137.865C63.5352 154.774 20.1263 122.452 26.2246 79.5795C28.0356 66.9208 34.2448 54.909 44.3347 46.0387C50.7103 40.4578 59.1555 50.1043 52.78 55.6667C45.0924 62.4487 40.3246 71.6701 38.9386 81.4089C34.2817 114.081 67.4714 139.084 97.464 126.111C105.207 122.711 110.344 134.464 102.583 137.865Z" fill="#6BBEA0"/>
<path d="M51.0983 9.85423C58.9706 6.63875 63.8493 18.5213 55.9769 21.7737C-1.36577 45.2799 -1.12551 126.388 55.5334 150.097C71.9249 156.935 90.9406 157.563 108.681 150.282C116.554 147.066 121.451 158.967 113.56 162.201C71.5184 179.443 23.4156 159.337 6.174 117.277C-11.0676 75.1801 9.03836 27.0958 51.0983 9.85423Z" fill="#6BBEA0"/>
<path d="M334.079 125.112C329.385 119.846 314.767 120.049 314.767 120.049H310.295C306.895 120.049 304.105 122.839 304.142 126.276C304.142 129.64 306.932 132.393 310.295 132.393H316.893C320.09 132.393 327.149 132.356 327.149 141.042C327.149 150.596 319.609 150.892 318.389 150.892H300.039C299.3 150.892 298.69 150.263 298.69 149.542V132.393H298.727V120.049H298.69V104.119C298.69 103.343 299.318 102.733 300.039 102.733H310.813C311.811 102.733 312.753 102.992 313.64 103.436C314.546 103.916 315.322 104.526 315.987 105.265C316.652 106.004 317.188 106.836 317.595 107.871C317.964 108.869 318.186 109.885 318.186 110.938C318.186 111.992 318.001 113.1 317.632 114.191C317.558 114.376 317.484 114.523 317.41 114.671C325.837 115.226 329.459 116.538 332.028 117.72C332.545 116.15 332.656 114.135 332.656 110.643C332.656 106.54 331.584 90.4258 310.813 90.4258H291.834C287.916 90.4258 284.756 93.5674 284.756 97.4851V156.14C284.756 160.057 287.898 163.254 291.834 163.254H318.389C321.494 163.254 324.432 162.885 327.186 162.146C329.939 161.406 332.36 160.205 334.393 158.524C336.444 156.842 338.089 154.606 339.272 151.889C340.473 149.136 341.064 145.773 341.064 141.818C341.083 136.588 339.216 129.769 334.079 125.112Z" fill="#313130"/>
<path d="M166.966 151.093H144.365C141.224 151.019 139.136 150.151 138.212 148.451C137.214 146.732 136.752 144.496 136.752 141.816L136.678 97.8899C136.678 93.7874 133.352 90.498 129.286 90.498C125.22 90.498 121.913 93.7874 121.913 97.8899V141.964C121.913 144.865 122.171 147.6 122.726 150.132C123.28 152.701 124.259 154.974 125.738 156.914C127.198 158.892 129.212 160.425 131.744 161.571C134.054 162.606 137.011 163.142 140.614 163.216V163.253H166.985C170.348 163.253 173.065 160.536 173.065 157.173C173.046 153.81 170.329 151.093 166.966 151.093Z" fill="#313130"/>
<path d="M253.452 130.73L195.019 143.093C195.019 143.093 204.684 104.766 216.141 109.441C232.847 116.242 225.363 104.082 239.999 114.69C247.575 120.141 253.452 130.73 253.452 130.73Z" fill="#6BBEA0"/>
<path d="M276.052 135.774L216.436 66.4566C215.826 65.7729 215.124 65.237 214.403 64.7935C218.783 84.1602 227.857 102.178 240.792 117.239L255.798 134.684L245.597 133.557L245.431 133.538L245.246 133.52C243.047 133.335 241.014 133.242 239.055 133.242C237.873 133.242 236.708 133.279 235.581 133.353C232.68 133.538 229.852 133.889 227.154 134.444L227.081 134.462H227.044L226.951 134.481H226.933C222.775 135.349 218.598 136.698 214.533 138.491C211.687 139.729 208.823 141.281 205.755 143.222L205.607 143.314L205.459 143.406L197.217 148.895L203.075 124.169C207.363 106.133 207.455 87.3387 203.352 69.2656L202.392 65.1446C202.022 66.3642 201.19 68.8036 200.821 70.245L179.717 159.206C178.257 164.898 182.378 169.962 187.534 170.535C187.848 170.572 188.181 170.59 188.513 170.59C189.714 170.59 190.971 170.35 192.209 169.795L213.553 155.566C215.752 154.18 218.025 152.905 220.391 151.87C223.458 150.521 226.655 149.468 229.926 148.784C229.982 148.765 230.056 148.765 230.111 148.747C232.199 148.322 234.325 148.045 236.468 147.934C237.318 147.878 238.187 147.86 239.055 147.86C240.7 147.86 242.345 147.952 243.99 148.082L269.824 150.928C277.419 150.447 281.115 141.447 276.052 135.774Z" fill="#313130"/>
<path d="M215.753 96.0997C215.531 98.0401 213.775 99.4445 211.835 99.2228C209.895 99.001 208.49 97.2454 208.712 95.3051C208.934 93.3647 210.689 91.9602 212.63 92.182C214.57 92.4037 215.975 94.1593 215.753 96.0997Z" fill="#6BBEA0"/>
<path d="M214.552 81.9076C214.404 83.2012 213.24 84.1252 211.965 83.9773C210.671 83.8295 209.747 82.6653 209.895 81.3902C210.043 80.0966 211.207 79.1726 212.482 79.3205C213.776 79.4683 214.7 80.614 214.552 81.9076Z" fill="#6BBEA0"/>
<path d="M213.702 74.9578C213.628 75.5306 213.11 75.9557 212.537 75.8817C211.964 75.8078 211.539 75.2904 211.613 74.7175C211.687 74.1446 212.205 73.7196 212.778 73.7935C213.35 73.8674 213.757 74.3849 213.702 74.9578Z" fill="#6BBEA0"/>
<path d="M208.231 70.0061C208.157 70.5789 207.64 71.004 207.067 70.93C206.494 70.8561 206.069 70.3387 206.143 69.7658C206.217 69.193 206.734 68.7679 207.307 68.8419C207.88 68.9158 208.305 69.4332 208.231 70.0061Z" fill="#6BBEA0"/>
<path d="M225.898 104.267C225.639 106.522 223.607 108.148 221.352 107.908C219.098 107.649 217.471 105.616 217.712 103.362C217.97 101.107 220.003 99.4808 222.258 99.721C224.512 99.9613 226.138 101.994 225.898 104.267Z" fill="#6BBEA0"/>
<path d="M264.262 6.80413C263.948 9.63153 261.398 11.6643 258.57 11.3502C255.743 11.036 253.71 8.4858 254.024 5.6584C254.338 2.83099 256.889 0.798228 259.716 1.13086C262.543 1.44502 264.576 3.97673 264.262 6.80413Z" fill="#6BBEA0"/>
<path d="M87.355 87.0621C86.8745 90.4439 83.7329 92.7908 80.3512 92.3103C76.9694 91.8298 74.6224 88.6883 75.1029 85.3065C75.5834 81.9247 78.725 79.5778 82.1068 80.0582C85.4885 80.5387 87.8355 83.6803 87.355 87.0621Z" fill="#6BBEA0"/>
<path d="M251.071 129.595L247.086 133.581L270.293 156.788L274.278 152.802L251.071 129.595Z" fill="#F2F5F6"/>
<path d="M199.235 140.787L191.365 172.648L196.837 174L204.707 142.138L199.235 140.787Z" fill="#F2F5F6"/>
<path d="M211.04 62.7799C210.966 63.4266 210.394 63.8887 209.747 63.8147C209.1 63.7408 208.638 63.1679 208.712 62.5211C208.786 61.8744 209.359 61.4124 210.005 61.4863C210.652 61.5602 211.114 62.1331 211.04 62.7799Z" fill="#6BBEA0"/>
<path d="M250.051 136.532C223.976 129.565 203.057 147.823 203.057 147.823L203.722 142.02C203.722 142.02 221.038 124.742 246.244 131.93C246.928 132.134 251.271 136.864 250.051 136.532Z" fill="#F2F5F6"/>
</svg>
