<svg width="272" height="367" viewBox="0 0 272 367" fill="none" xmlns="http://www.w3.org/2000/svg">
<g opacity="0.2">
<path d="M204.702 211.032C211.95 207.237 220.904 209.966 224.741 217.214C241.668 249.234 139.554 266.8 120.495 194.191C114.697 172.148 119.898 136.802 141.302 144.519C148.976 147.333 152.942 155.818 150.17 163.535C138.189 196.536 173.279 227.618 204.702 211.032Z" fill="#6BBEA0"/>
<path d="M236.679 296.603C146.588 335.615 46.4353 261.044 60.5053 162.128C64.6836 132.922 79.0094 105.208 102.289 84.743C116.998 71.8668 136.483 94.1231 121.774 106.957C104.037 122.604 93.0367 143.88 89.839 166.349C79.0946 241.73 155.67 299.417 224.868 269.486C242.733 261.641 254.586 288.758 236.679 296.603Z" fill="#6BBEA0"/>
<path d="M117.894 1.26114C136.057 -6.15759 147.313 21.2576 129.15 28.7616C-3.1511 82.9951 -2.59678 270.126 128.126 324.829C165.945 340.604 209.818 342.054 250.749 325.255C268.912 317.836 280.21 345.294 262.005 352.755C165.007 392.535 54.0244 346.147 14.2446 249.106C-25.5351 151.981 20.8532 41.0409 117.894 1.26114Z" fill="#6BBEA0"/>
<path d="M201.546 179.396C200.437 187.198 193.189 192.613 185.386 191.505C177.584 190.396 172.169 183.148 173.278 175.345C174.386 167.543 181.634 162.128 189.437 163.237C197.239 164.345 202.654 171.593 201.546 179.396Z" fill="#6BBEA0"/>
</g>
</svg>
