<svg width="635" height="859" viewBox="0 0 635 859" fill="none" xmlns="http://www.w3.org/2000/svg">
<g opacity="0.7">
<path d="M479.124 493.942C496.089 485.06 517.046 491.447 526.028 508.412C565.646 583.358 326.638 624.473 282.03 454.523C268.457 402.929 280.632 320.199 330.729 338.262C348.692 344.849 357.973 364.708 351.487 382.771C323.445 460.012 405.575 532.762 479.124 493.942Z" fill="#6BBEA0"/>
<path d="M553.97 694.229C343.104 785.541 108.687 611 141.619 379.477C151.399 311.118 184.93 246.251 239.418 198.349C273.847 168.211 319.453 220.304 285.024 250.343C243.509 286.967 217.762 336.765 210.277 389.356C185.129 565.793 364.361 700.816 526.327 630.76C568.141 612.398 595.884 675.867 553.97 694.229Z" fill="#6BBEA0"/>
<path d="M275.942 2.95181C318.454 -14.4125 344.8 49.7556 302.287 67.3195C-7.37546 194.258 -6.07802 632.257 299.892 760.294C388.41 797.218 491.099 800.611 586.902 761.292C629.414 743.927 655.86 808.195 613.248 825.659C386.215 918.768 126.449 810.191 33.341 583.058C-59.7675 355.726 48.8091 96.0602 275.942 2.95181Z" fill="#6BBEA0"/>
<path d="M471.739 419.894C469.144 438.156 452.179 450.83 433.917 448.236C415.654 445.641 402.981 428.676 405.575 410.413C408.17 392.151 425.135 379.477 443.397 382.072C461.66 384.666 474.334 401.632 471.739 419.894Z" fill="#6BBEA0"/>
</g>
</svg>
