<svg width="20" height="20" viewBox="0 0 20 20" fill="none" xmlns="http://www.w3.org/2000/svg">
<path d="M6.6158 6.47307C7.5864 5.50245 8.75688 5.01715 10.1272 5.01715C11.4974 5.01715 12.6536 5.50245 13.5957 6.47307C14.5663 7.41517 15.0516 8.57131 15.0516 9.94158C15.0516 11.3119 14.5663 12.4823 13.5957 13.453C12.6536 14.395 11.4974 14.8661 10.1272 14.8661C8.75688 14.8661 7.5864 14.395 6.6158 13.453C5.67373 12.4823 5.20269 11.3119 5.20269 9.94158C5.20269 8.57131 5.67373 7.41517 6.6158 6.47307ZM7.85764 12.2112C8.48564 12.8392 9.24219 13.1532 10.1272 13.1532C11.0121 13.1532 11.7687 12.8392 12.3967 12.2112C13.0247 11.5831 13.3387 10.8266 13.3387 9.94158C13.3387 9.05662 13.0247 8.30014 12.3967 7.67207C11.7687 7.044 11.0121 6.73001 10.1272 6.73001C9.24219 6.73001 8.48564 7.044 7.85764 7.67207C7.22957 8.30014 6.91557 9.05662 6.91557 9.94158C6.91557 10.8266 7.22957 11.5831 7.85764 12.2112ZM16.0365 4.03225C16.2649 4.23209 16.3791 4.48902 16.3791 4.80304C16.3791 5.11706 16.2649 5.38827 16.0365 5.61665C15.8367 5.84503 15.5798 5.95922 15.2657 5.95922C14.9517 5.95922 14.6805 5.84503 14.4521 5.61665C14.2238 5.38827 14.1096 5.11706 14.1096 4.80304C14.1096 4.48902 14.2238 4.23209 14.4521 4.03225C14.6805 3.80387 14.9517 3.68968 15.2657 3.68968C15.5798 3.68968 15.8367 3.80387 16.0365 4.03225ZM19.6763 6.00204C19.7049 6.77283 19.7192 8.086 19.7192 9.94158C19.7192 11.7972 19.7049 13.1104 19.6763 13.8812C19.5907 15.6226 19.0625 16.9786 18.0919 17.9492C17.1498 18.8913 15.8081 19.3909 14.0667 19.448C13.2959 19.5051 11.9827 19.5336 10.1272 19.5336C8.27157 19.5336 6.9584 19.5051 6.18759 19.448C4.44618 19.3623 3.10445 18.8485 2.16237 17.9064C1.79125 17.5639 1.4915 17.1641 1.26312 16.7074C1.03474 16.2506 0.863452 15.8081 0.749266 15.3799C0.66362 14.9517 0.620799 14.4521 0.620799 13.8812C0.563704 13.1104 0.535156 11.7972 0.535156 9.94158C0.535156 8.086 0.563704 6.75855 0.620799 5.95922C0.706445 4.24636 1.2203 2.91889 2.16237 1.97683C3.10445 1.00621 4.44618 0.478073 6.18759 0.392431C6.9584 0.363883 8.27157 0.349609 10.1272 0.349609C11.9827 0.349609 13.2959 0.363883 14.0667 0.392431C15.8081 0.478073 17.1498 1.00621 18.0919 1.97683C19.0625 2.91889 19.5907 4.26063 19.6763 6.00204ZM17.6209 15.5941C17.7065 15.3657 17.7779 15.0802 17.835 14.7376C17.8921 14.3665 17.9349 13.9383 17.9635 13.453C17.9921 12.9391 18.0063 12.5252 18.0063 12.2112C18.0063 11.8971 18.0063 11.4546 18.0063 10.8837C18.0063 10.3128 18.0063 9.99869 18.0063 9.94158C18.0063 9.856 18.0063 9.54193 18.0063 8.99952C18.0063 8.42862 18.0063 7.98607 18.0063 7.67207C18.0063 7.35807 17.9921 6.95841 17.9635 6.47307C17.9349 5.95922 17.8921 5.531 17.835 5.18843C17.7779 4.81732 17.7065 4.51756 17.6209 4.28918C17.2783 3.40421 16.6645 2.79043 15.7796 2.44786C15.5512 2.36222 15.2514 2.29085 14.8803 2.23375C14.5378 2.17666 14.1096 2.13383 13.5957 2.10529C13.1104 2.07674 12.7107 2.06247 12.3967 2.06247C12.1112 2.06247 11.6687 2.06247 11.0692 2.06247C10.4983 2.06247 10.1843 2.06247 10.1272 2.06247C10.0701 2.06247 9.75605 2.06247 9.18509 2.06247C8.61412 2.06247 8.17164 2.06247 7.85764 2.06247C7.54357 2.06247 7.12964 2.07674 6.6158 2.10529C6.13049 2.13383 5.70228 2.17666 5.33116 2.23375C4.98859 2.29085 4.70311 2.36222 4.47473 2.44786C3.58976 2.79043 2.97598 3.40421 2.6334 4.28918C2.54776 4.51756 2.4764 4.81732 2.4193 5.18843C2.3622 5.531 2.31938 5.95922 2.29084 6.47307C2.26229 6.95841 2.24801 7.35807 2.24801 7.67207C2.24801 7.95758 2.24801 8.40007 2.24801 8.99952C2.24801 9.57048 2.24801 9.88455 2.24801 9.94158C2.24801 10.0558 2.24801 10.327 2.24801 10.7552C2.24801 11.1549 2.24801 11.4974 2.24801 11.783C2.24801 12.0399 2.24801 12.3824 2.24801 12.8106C2.27656 13.2389 2.30511 13.61 2.33366 13.924C2.3622 14.2095 2.40502 14.5092 2.46212 14.8232C2.51922 15.1373 2.57631 15.3942 2.6334 15.5941C3.00453 16.479 3.6183 17.0928 4.47473 17.4354C4.70311 17.521 4.98859 17.5924 5.33116 17.6494C5.70228 17.7065 6.13049 17.7494 6.6158 17.7779C7.12964 17.8065 7.52929 17.8208 7.81481 17.8208C8.12881 17.8208 8.57129 17.8208 9.14226 17.8208C9.74178 17.8208 10.0701 17.8208 10.1272 17.8208C10.2128 17.8208 10.5268 17.8208 11.0692 17.8208C11.6402 17.8208 12.0827 17.8208 12.3967 17.8208C12.7107 17.8208 13.1104 17.8065 13.5957 17.7779C14.1096 17.7494 14.5378 17.7065 14.8803 17.6494C15.2514 17.5924 15.5512 17.521 15.7796 17.4354C16.6645 17.0643 17.2783 16.4505 17.6209 15.5941Z" fill="white"/>
</svg>
