<svg width="10" height="20" viewBox="0 0 10 20" fill="none" xmlns="http://www.w3.org/2000/svg">
<path d="M9.08396 11.2267H6.47127V19.5401H2.98771V11.2267H0.166016V7.77519H2.98771V5.17725C2.98771 4.18756 3.16189 3.34632 3.51025 2.65354C3.8586 1.96076 4.3463 1.44117 4.97335 1.09479C5.62361 0.723651 6.36677 0.538086 7.20283 0.538086C7.5744 0.538086 7.96921 0.562829 8.38727 0.612313C8.80527 0.637055 9.1304 0.674167 9.36265 0.723651L9.71102 0.760767V3.69272H8.31758C7.66733 3.69272 7.19121 3.87828 6.88933 4.24941C6.61065 4.59581 6.47127 5.02879 6.47127 5.54838V7.77519H9.57165L9.08396 11.2267Z" fill="white"/>
</svg>
