<svg width="527" height="599" viewBox="0 0 527 599" fill="none" xmlns="http://www.w3.org/2000/svg">
<path d="M393.999 368.559L83.0181 434.355C83.0181 434.355 134.455 230.378 195.431 255.261C284.339 291.453 244.508 226.739 322.4 283.192C362.724 312.205 393.999 368.559 393.999 368.559Z" fill="#6BBEA0"/>
<path d="M514.279 395.408L197.004 26.4998C193.758 22.8609 190.021 20.0088 186.185 17.6484C209.494 120.719 257.783 216.609 326.628 296.764L406.488 389.606L352.199 383.606L351.314 383.508L350.33 383.41C338.627 382.426 327.808 381.935 317.383 381.935C311.089 381.935 304.893 382.131 298.893 382.525C283.453 383.508 268.405 385.377 254.046 388.327L253.653 388.426H253.456L252.964 388.524H252.866C230.737 393.146 208.51 400.326 186.874 409.866C171.728 416.455 156.484 424.717 140.158 435.043L139.371 435.535L138.584 436.027L94.7202 465.237L125.897 333.645C148.714 237.656 149.206 137.635 127.372 41.449L122.258 19.5171C120.291 26.0082 115.865 38.9902 113.898 46.6615L1.58333 520.115C-6.18627 550.407 15.7455 577.355 43.1849 580.404C44.8569 580.6 46.6272 580.699 48.3974 580.699C54.7902 580.699 61.4779 579.42 68.0673 576.47L181.661 500.741C193.365 493.364 205.461 486.578 218.05 481.071C234.376 473.891 251.391 468.285 268.798 464.646C269.094 464.548 269.487 464.548 269.782 464.45C280.896 462.188 292.206 460.712 303.614 460.122C308.138 459.827 312.761 459.729 317.383 459.729C326.136 459.729 334.889 460.221 343.643 460.909L481.135 476.055C521.556 473.498 541.227 425.602 514.279 395.408Z" fill="#313130"/>
<path d="M193.368 184.247C192.188 194.574 182.845 202.048 172.518 200.868C162.191 199.688 154.717 190.345 155.897 180.018C157.077 169.691 166.42 162.217 176.747 163.397C187.074 164.577 194.548 173.921 193.368 184.247Z" fill="#6BBEA0"/>
<path d="M186.974 108.716C186.187 115.6 179.991 120.517 173.205 119.731C166.32 118.944 161.403 112.748 162.19 105.962C162.976 99.0773 169.172 94.1599 175.958 94.9467C182.843 95.7335 187.76 101.831 186.974 108.716Z" fill="#6BBEA0"/>
<path d="M182.448 71.7364C182.054 74.7852 179.3 77.0473 176.252 76.6539C173.203 76.2605 170.941 73.5067 171.334 70.4578C171.727 67.409 174.481 65.147 177.53 65.5404C180.579 65.9337 182.743 68.6876 182.448 71.7364Z" fill="#6BBEA0"/>
<path d="M153.339 45.3823C152.946 48.4311 150.192 50.6931 147.143 50.2997C144.094 49.9063 141.832 47.1526 142.226 44.1038C142.619 41.055 145.373 38.7929 148.422 39.1863C151.471 39.5797 153.733 42.3334 153.339 45.3823Z" fill="#6BBEA0"/>
<path d="M247.358 227.72C245.981 239.719 235.163 248.373 223.164 247.095C211.166 245.718 202.511 234.899 203.789 222.901C205.166 210.902 215.985 202.247 227.983 203.526C239.982 204.804 248.637 215.623 247.358 227.72Z" fill="#6BBEA0"/>
<path d="M381.332 362.51L360.121 383.721L483.629 507.229L504.84 486.018L381.332 362.51Z" fill="#F2F5F6"/>
<path d="M105.462 422.078L63.5767 591.646L92.6974 598.839L134.583 429.271L105.462 422.078Z" fill="#F2F5F6"/>
<path d="M168.287 6.92576C167.894 10.368 164.845 12.8268 161.403 12.4335C157.961 12.0401 155.502 8.9911 155.895 5.54887C156.289 2.10664 159.337 -0.352066 162.78 0.0413313C166.222 0.434729 168.681 3.48353 168.287 6.92576Z" fill="#6BBEA0"/>
<path d="M375.902 399.441C237.131 362.363 125.8 459.533 125.8 459.533L129.34 428.651C129.34 428.651 221.494 336.694 355.642 374.952C359.281 376.034 382.393 401.211 375.902 399.441Z" fill="#F2F5F6"/>
</svg>
