<svg width="121" height="60" viewBox="0 0 121 60" fill="none" xmlns="http://www.w3.org/2000/svg">
<path d="M54.1215 0.932512V0.945103C52.9445 0.970278 51.9501 1.1528 51.1886 1.49267C50.3515 1.8703 49.6969 2.3801 49.2123 3.03466C48.7277 3.68922 48.3878 4.44448 48.2053 5.28786C48.0227 6.13753 47.9409 7.04384 47.9409 8.01939V10.5936V17.3721V17.9637C47.9409 18.9329 48.029 19.8455 48.2053 20.6952C48.3878 21.5449 48.7277 22.2939 49.2123 22.9358C49.6969 23.5904 50.3515 24.1128 51.1886 24.4904C51.9501 24.8303 52.9445 25.0128 54.1215 25.038L64.0532 25.0506C65.205 25.0506 66.1428 24.1191 66.1428 22.961C66.1428 21.8092 65.2113 20.8652 64.0532 20.8652H55.3677C54.3229 20.8526 53.6432 20.5631 53.3285 20.0029C53.0138 19.4176 52.8564 18.8134 52.8564 17.9133V17.3658V10.5873V8.19562C52.8564 7.30819 53.0138 6.57181 53.3285 5.98648C53.6432 5.42633 54.3229 5.13681 55.3677 5.11163H64.0532C65.205 5.11163 66.1428 4.18014 66.1428 3.02207V3.00949C66.1428 1.85771 65.2113 0.919922 64.0532 0.919922H54.1215V0.932512Z" fill="white"/>
<path d="M56.7902 15.2259H64.0533C65.2051 15.2259 66.1429 14.2944 66.1429 13.1426V13.0671C66.1429 11.9153 65.2114 10.9775 64.0533 10.9775H56.7902C55.6385 10.9775 54.7007 11.909 54.7007 13.0671V13.1426C54.7007 14.2881 55.6385 15.2259 56.7902 15.2259Z" fill="white"/>
<path d="M97.7062 0.373047C96.9887 0.373047 96.3341 0.807323 96.0698 1.47447L90.6571 14.9874C90.4053 15.579 89.8452 15.579 89.5871 14.9748L84.1744 1.47447C83.9101 0.807323 83.2555 0.373047 82.538 0.373047H81.0715C79.8002 0.373047 78.9505 1.66958 79.4603 2.83395L88.8633 24.3023C89.3731 25.2967 90.7893 25.2967 91.2991 24.3023L100.715 2.83395C101.224 1.66958 100.362 0.373047 99.1034 0.373047H97.7062Z" fill="white"/>
<path d="M81.267 11.3747L79.8132 14.9874C79.5614 15.579 79.0138 15.579 78.7558 14.9748L73.3305 1.47447C73.0661 0.807323 72.4179 0.373047 71.7067 0.373047H70.2276C68.9688 0.373047 68.1192 1.66958 68.6164 2.83395L78.0194 24.3023C78.5292 25.2967 79.9579 25.2967 80.4677 24.3023L83.6965 16.9259L81.267 11.3747Z" fill="white"/>
<path d="M44.6491 18.6187V2.76449C44.6491 1.49313 43.6169 0.460938 42.3455 0.460938C41.0742 0.460938 40.042 1.49313 40.042 2.76449V13.1871L44.6491 18.6187Z" fill="white"/>
<path d="M39.0726 14.7605L26.529 0.435723C25.4338 -0.546119 23.6904 0.240616 23.6904 1.70708V22.2439C23.6904 23.5153 24.7352 24.5475 26.0066 24.5475C27.2779 24.5475 28.3101 23.5153 28.3101 22.2439V9.36042L41.823 24.623C42.9245 25.5923 44.649 24.8055 44.649 23.3391V21.3376L39.0726 14.7605Z" fill="white"/>
<path d="M103.812 4.38209C104.454 5.30729 105.391 6.11919 106.575 6.81152C106.65 6.70452 106.694 6.59123 106.782 6.48423C107.072 6.15695 107.45 5.89262 107.896 5.67233C108.343 5.46463 108.828 5.30729 109.325 5.21288C109.772 5.13106 110.238 5.06812 110.596 5.04295V5.05554H117.52C118.659 5.05554 119.584 4.13034 119.584 2.99115C119.584 1.86455 118.665 0.939348 117.52 0.939348H111.188C111.094 0.926761 110.993 0.926758 110.873 0.926758C110.81 0.926758 110.741 0.926761 110.666 0.939348H110.59C109.665 0.951936 108.708 1.04634 107.726 1.24145C106.631 1.44915 105.649 1.82049 104.756 2.34288C104.208 2.65757 103.736 3.06038 103.314 3.51983C103.459 3.79676 103.604 4.08628 103.812 4.38209Z" fill="white"/>
<path d="M105.253 13.3315C105.907 13.6714 106.574 13.9357 107.254 14.1309C107.934 14.3386 108.601 14.4959 109.23 14.6155C109.872 14.7225 110.432 14.8358 110.917 14.9176C111.647 15.0372 112.339 15.1693 113.007 15.3267C113.686 15.4714 114.265 15.654 114.75 15.8617C114.788 15.8868 114.826 15.912 114.857 15.9246C117.5 16.8435 119.477 18.1841 120.754 19.9023C120.912 19.2981 121 18.631 121 17.9135C121 16.8687 120.842 15.9875 120.528 15.2449C120.2 14.5148 119.785 13.898 119.269 13.4008C118.759 12.9035 118.168 12.4944 117.507 12.1672C116.852 11.8525 116.185 11.5944 115.518 11.4056C114.838 11.2231 114.196 11.0657 113.579 10.9713C112.95 10.8643 112.402 10.751 111.943 10.6441C111.748 10.5937 111.528 10.5496 111.339 10.5119C111.314 10.4993 111.301 10.4993 111.276 10.4867C110.86 10.4049 110.464 10.3042 110.036 10.1972C109.369 10.0524 108.765 9.86991 108.217 9.66221C107.927 9.55522 107.669 9.42305 107.43 9.272C105.127 8.29015 103.39 6.99361 102.288 5.36351C102.25 5.31316 102.238 5.2691 102.2 5.21875C101.885 5.98031 101.728 6.85515 101.728 7.87476C101.728 8.80625 101.885 9.61815 102.213 10.3105C102.527 11.0028 102.949 11.5944 103.471 12.0916C103.994 12.5889 104.585 13.0043 105.253 13.3315Z" fill="white"/>
<path d="M119.326 21.0232C118.621 20.0539 117.576 19.2294 116.267 18.5371C116.216 18.6819 116.172 18.8266 116.084 18.984C115.889 19.349 115.6 19.6889 115.197 19.9658C114.794 20.2553 114.322 20.4882 113.743 20.6707C113.17 20.8532 112.541 20.9225 111.792 20.9225H111.257H104.415C103.276 20.9225 102.351 21.8414 102.351 22.9869C102.351 24.126 103.27 25.0512 104.415 25.0512H111.207H111.836C113.195 25.0512 114.429 24.9065 115.562 24.617C116.676 24.3149 117.651 23.8743 118.463 23.2953C119.011 22.8925 119.47 22.4204 119.848 21.8854C119.697 21.6022 119.54 21.3127 119.326 21.0232Z" fill="white"/>
<path d="M30.2173 34.3219C31.2873 33.7617 32.609 34.1645 33.1754 35.2345C35.6741 39.9612 20.6003 42.5542 17.7869 31.8358C16.931 28.5819 17.6988 23.3643 20.8583 24.5034C21.9912 24.9188 22.5766 26.1713 22.1675 27.3105C20.3989 32.182 25.5787 36.7702 30.2173 34.3219Z" fill="#6BBEA0"/>
<path d="M34.938 46.9539C21.639 52.7128 6.85478 41.7048 8.93175 27.1031C9.54855 22.7918 11.6633 18.7008 15.0997 15.6797C17.2711 13.779 20.1474 17.0644 17.976 18.9588C15.3578 21.2687 13.7339 24.4093 13.2619 27.7261C11.6759 38.8537 22.9796 47.3693 33.1946 42.951C35.8317 41.7929 37.5814 45.7958 34.938 46.9539Z" fill="#6BBEA0"/>
<path d="M17.4031 3.35609C20.0843 2.26096 21.7459 6.30791 19.0647 7.41563C-0.465156 15.4214 -0.383329 43.0452 18.9136 51.1202C24.4963 53.4489 30.9727 53.6629 37.0148 51.1831C39.696 50.088 41.3638 54.1412 38.6763 55.2426C24.3578 61.1148 7.97492 54.2671 2.10275 39.9423C-3.76942 25.6049 3.0783 9.22826 17.4031 3.35609Z" fill="#6BBEA0"/>
<path d="M113.781 42.6104C112.182 40.8167 107.204 40.8859 107.204 40.8859H105.681C104.522 40.8859 103.572 41.8363 103.585 43.007C103.585 44.1524 104.535 45.0902 105.681 45.0902H107.927C109.016 45.0902 111.421 45.0776 111.421 48.0358C111.421 51.2897 108.853 51.3904 108.437 51.3904H102.187C101.936 51.3904 101.728 51.1764 101.728 50.9309V45.0902H101.741V40.8859H101.728V35.4606C101.728 35.1963 101.942 34.9886 102.187 34.9886H105.857C106.197 34.9886 106.518 35.0767 106.82 35.2277C107.128 35.3914 107.392 35.5991 107.619 35.8508C107.846 36.1026 108.028 36.3858 108.167 36.7383C108.292 37.0781 108.368 37.4243 108.368 37.7831C108.368 38.1418 108.305 38.5194 108.179 38.8908C108.154 38.9537 108.129 39.0041 108.104 39.0544C110.974 39.2432 112.207 39.6901 113.082 40.0929C113.258 39.5579 113.296 38.8719 113.296 37.6824C113.296 36.2851 112.931 30.7969 105.857 30.7969H99.393C98.0587 30.7969 96.9824 31.8668 96.9824 33.2011V53.1778C96.9824 54.5121 98.0524 55.601 99.393 55.601H108.437C109.495 55.601 110.495 55.4751 111.433 55.2233C112.371 54.9716 113.195 54.5625 113.888 53.9897C114.586 53.417 115.146 52.6554 115.549 51.7302C115.958 50.7925 116.16 49.647 116.16 48.3001C116.166 46.5189 115.53 44.1965 113.781 42.6104Z" fill="white"/>
<path d="M56.8654 51.4598H49.168C48.0981 51.4347 47.3869 51.1388 47.0722 50.5598C46.7323 49.9745 46.575 49.2129 46.575 48.3003L46.5498 33.3398C46.5498 31.9426 45.4169 30.8223 44.0322 30.8223C42.6476 30.8223 41.521 31.9426 41.521 33.3398V48.3507C41.521 49.3388 41.6091 50.2703 41.7979 51.1325C41.9867 52.0074 42.3203 52.7815 42.8238 53.4424C43.321 54.1158 44.0071 54.6382 44.8693 55.0284C45.656 55.3809 46.6631 55.5634 47.8904 55.5886V55.6012H56.8717C58.0172 55.6012 58.9424 54.676 58.9424 53.5305C58.9361 52.385 58.0109 51.4598 56.8654 51.4598Z" fill="white"/>
<path d="M86.3211 44.5239L66.4199 48.7345C66.4199 48.7345 69.7116 35.681 73.6138 37.2733C79.3034 39.5895 76.7544 35.4481 81.7392 39.0608C84.3196 40.9175 86.3211 44.5239 86.3211 44.5239Z" fill="#6BBEA0"/>
<path d="M94.0181 46.2426L73.7142 22.6343C73.5065 22.4014 73.2673 22.2189 73.0218 22.0679C74.5135 28.6638 77.6038 34.8003 82.0095 39.9298L87.1201 45.8712L83.6459 45.4873L83.5892 45.481L83.5263 45.4747C82.7773 45.4118 82.085 45.3803 81.4178 45.3803C81.015 45.3803 80.6185 45.3929 80.2346 45.4181C79.2464 45.481 78.2835 45.6006 77.3646 45.7894L77.3394 45.7957H77.3268L77.2954 45.802H77.2891C75.8729 46.0978 74.4505 46.5573 73.0659 47.1678C72.0966 47.5895 71.1211 48.1181 70.0763 48.779L70.0259 48.8105L69.9756 48.8419L67.1685 50.7112L69.1637 42.29C70.6239 36.1472 70.6553 29.7464 69.2581 23.591L68.9308 22.1875C68.8049 22.6029 68.5217 23.4336 68.3958 23.9246L61.2083 54.2232C60.711 56.1617 62.1146 57.8862 63.8705 58.0813C63.9775 58.0939 64.0908 58.1002 64.2041 58.1002C64.6132 58.1002 65.0412 58.0184 65.4629 57.8296L72.7323 52.9833C73.4813 52.5113 74.2554 52.077 75.061 51.7245C76.1058 51.2651 77.1946 50.9063 78.3087 50.6735C78.3275 50.6672 78.3527 50.6672 78.3716 50.6609C79.0828 50.5161 79.8066 50.4217 80.5367 50.3839C80.8262 50.365 81.122 50.3588 81.4178 50.3588C81.978 50.3588 82.5381 50.3902 83.0983 50.4343L91.8971 51.4035C94.4839 51.2399 95.7427 48.1748 94.0181 46.2426Z" fill="white"/>
<path d="M73.4815 32.7294C73.406 33.3902 72.808 33.8685 72.1472 33.793C71.4863 33.7175 71.008 33.1196 71.0835 32.4587C71.1591 31.7979 71.757 31.3195 72.4178 31.3951C73.0787 31.4706 73.557 32.0685 73.4815 32.7294Z" fill="#6BBEA0"/>
<path d="M73.0723 27.8957C73.0219 28.3363 72.6254 28.651 72.1912 28.6006C71.7506 28.5503 71.4359 28.1538 71.4862 27.7195C71.5366 27.2789 71.9331 26.9642 72.3674 27.0146C72.808 27.0649 73.1226 27.4551 73.0723 27.8957Z" fill="#6BBEA0"/>
<path d="M72.7829 25.5292C72.7577 25.7244 72.5815 25.8691 72.3864 25.8439C72.1913 25.8188 72.0465 25.6425 72.0717 25.4474C72.0969 25.2523 72.2731 25.1076 72.4682 25.1327C72.6633 25.1579 72.8018 25.3341 72.7829 25.5292Z" fill="#6BBEA0"/>
<path d="M70.9196 23.8427C70.8944 24.0378 70.7182 24.1826 70.5231 24.1574C70.328 24.1322 70.1832 23.956 70.2084 23.7609C70.2336 23.5658 70.4098 23.421 70.6049 23.4462C70.8 23.4714 70.9448 23.6476 70.9196 23.8427Z" fill="#6BBEA0"/>
<path d="M76.9368 35.5114C76.8487 36.2792 76.1564 36.8331 75.3885 36.7513C74.6207 36.6632 74.0668 35.9708 74.1486 35.203C74.2368 34.4351 74.9291 33.8813 75.6969 33.9631C76.4648 34.0449 77.0186 34.7372 76.9368 35.5114Z" fill="#6BBEA0"/>
<path d="M90.0026 2.3174C89.8956 3.28036 89.027 3.97269 88.0641 3.86569C87.1011 3.75869 86.4088 2.89014 86.5158 1.92718C86.6228 0.964221 87.4913 0.271899 88.4543 0.385188C89.4172 0.492184 90.1096 1.35444 90.0026 2.3174Z" fill="#6BBEA0"/>
<path d="M29.7517 29.6517C29.5881 30.8035 28.5181 31.6028 27.3663 31.4392C26.2145 31.2756 25.4152 30.2056 25.5789 29.0538C25.7425 27.902 26.8125 27.1027 27.9642 27.2664C29.116 27.43 29.9153 28.5 29.7517 29.6517Z" fill="#6BBEA0"/>
<path d="M85.5102 44.1373L84.1528 45.4946L92.0567 53.3985L93.4141 52.0411L85.5102 44.1373Z" fill="#313130"/>
<path d="M67.8558 47.9493L65.1753 58.8008L67.0389 59.2611L69.7193 48.4096L67.8558 47.9493Z" fill="#313130"/>
<path d="M71.8762 21.3817C71.851 21.602 71.656 21.7593 71.4357 21.7342C71.2154 21.709 71.058 21.5139 71.0832 21.2936C71.1084 21.0733 71.3035 20.9159 71.5238 20.9411C71.7441 20.9663 71.9014 21.1614 71.8762 21.3817Z" fill="#6BBEA0"/>
<path d="M85.163 46.5007C76.2824 44.1279 69.1577 50.3462 69.1577 50.3462L69.3843 48.3699C69.3843 48.3699 75.2816 42.4852 83.8665 44.9335C84.0993 45.0027 85.5784 46.614 85.163 46.5007Z" fill="#313130"/>
</svg>
