<svg width="19" height="19" viewBox="0 0 19 19" fill="none" xmlns="http://www.w3.org/2000/svg">
<path d="M17.233 18.2411L11.0417 12.0488C8.28755 14.0069 4.49238 13.5279 2.31102 10.9469C0.129656 8.366 0.289827 4.54408 2.67949 2.15469C5.06852 -0.235739 8.89081 -0.396603 11.4722 1.78464C14.0537 3.96589 14.5329 7.76143 12.5747 10.5159L18.7659 16.7082L17.2341 18.24L17.233 18.2411ZM7.27499 2.41685C5.22067 2.41638 3.44832 3.85843 3.031 5.86992C2.61368 7.8814 3.66609 9.90949 5.55106 10.7263C7.43602 11.5431 9.63546 10.9241 10.8178 9.24408C12 7.56407 11.8402 5.28479 10.4351 3.78619L11.0905 4.43619L10.3517 3.69953L10.3387 3.68653C9.52809 2.87097 8.42483 2.41375 7.27499 2.41685Z" fill="black"/>
</svg>
